<?xml version="1.0" encoding="UTF-8" standalone="no"?>
<svg
   xmlns:dc="http://purl.org/dc/elements/1.1/"
   xmlns:cc="http://creativecommons.org/ns#"
   xmlns:rdf="http://www.w3.org/1999/02/22-rdf-syntax-ns#"
   xmlns:svg="http://www.w3.org/2000/svg"
   xmlns="http://www.w3.org/2000/svg"
   xmlns:sodipodi="http://sodipodi.sourceforge.net/DTD/sodipodi-0.dtd"
   xmlns:inkscape="http://www.inkscape.org/namespaces/inkscape"
   version="1.1"
   id="svg28"
   xml:space="preserve"
   width="480"
   height="480"
   viewBox="0 0 480 480"
   sodipodi:docname="SCUBA.svg"
   inkscape:version="1.0.2 (e86c8708, 2021-01-15)"><metadata
     id="metadata34"><rdf:RDF><cc:Work
         rdf:about=""><dc:format>image/svg+xml</dc:format><dc:type
           rdf:resource="http://purl.org/dc/dcmitype/StillImage" /><dc:title /></cc:Work></rdf:RDF></metadata><defs
     id="defs32"><clipPath
       clipPathUnits="userSpaceOnUse"
       id="clipPath46"><path
         d="M 0,360 H 360 V 0 H 0 Z"
         id="path44" /></clipPath><clipPath
       clipPathUnits="userSpaceOnUse"
       id="clipPath82"><path
         d="m 196.5,173.656 c 0,-22.23 18.02,-40.25 40.25,-40.25 v 0 c 22.229,0 40.248,18.02 40.248,40.25 v 0 c 0,22.229 -18.019,40.25 -40.248,40.25 v 0 c -22.23,0 -40.25,-18.021 -40.25,-40.25"
         id="path80" /></clipPath><clipPath
       clipPathUnits="userSpaceOnUse"
       id="clipPath94"><path
         d="M 0,360 H 360 V 0 H 0 Z"
         id="path92" /></clipPath><clipPath
       clipPathUnits="userSpaceOnUse"
       id="clipPath106"><path
         d="m 89.895,173.656 c 0,-22.23 18.021,-40.25 40.25,-40.25 v 0 c 22.228,0 40.249,18.02 40.249,40.25 v 0 c 0,22.229 -18.021,40.25 -40.249,40.25 v 0 c -22.229,0 -40.25,-18.021 -40.25,-40.25"
         id="path104" /></clipPath><clipPath
       clipPathUnits="userSpaceOnUse"
       id="clipPath118"><path
         d="M 0,360 H 360 V 0 H 0 Z"
         id="path116" /></clipPath><clipPath
       clipPathUnits="userSpaceOnUse"
       id="clipPath134"><path
         d="m 153.322,265.53 c 0,-16.639 13.487,-30.126 30.125,-30.126 v 0 c 16.637,0 30.126,13.487 30.126,30.126 v 0 c 0,16.637 -13.489,30.124 -30.126,30.124 v 0 c -16.638,0 -30.125,-13.487 -30.125,-30.124"
         id="path132" /></clipPath><clipPath
       clipPathUnits="userSpaceOnUse"
       id="clipPath158"><path
         d="M 0,360 H 360 V 0 H 0 Z"
         id="path156" /></clipPath><clipPath
       clipPathUnits="userSpaceOnUse"
       id="clipPath300"><path
         d="m 167.225,108.988 v -2.457 H 137.834 C 134.671,95.092 132.975,83.046 132.975,70.6 v 0 c 0,-17.612 3.388,-34.43 9.543,-49.846 v 0 h 38.672 v 68.734 h 0.013 c 0.164,1.095 1.102,1.938 2.242,1.938 v 0 c 1.143,0 2.078,-0.843 2.245,-1.938 v 0 h 0.033 V 20.754 h 38.671 c 6.154,15.416 9.546,32.234 9.546,49.846 v 0 c 0,12.446 -1.698,24.492 -4.862,35.931 v 0 h -29.496 v 2.457 z"
         id="path298" /></clipPath><clipPath
       clipPathUnits="userSpaceOnUse"
       id="clipPath316"><path
         d="M 0,360 H 360 V 0 H 0 Z"
         id="path314" /></clipPath><clipPath
       clipPathUnits="userSpaceOnUse"
       id="clipPath324"><path
         d="m 153.352,311.156 h 75.72 v -87.068 h -75.72 z"
         id="path322" /></clipPath></defs><sodipodi:namedview
     pagecolor="#ffffff"
     bordercolor="#666666"
     borderopacity="1"
     objecttolerance="10"
     gridtolerance="10"
     guidetolerance="10"
     inkscape:pageopacity="0"
     inkscape:pageshadow="2"
     inkscape:window-width="1841"
     inkscape:window-height="1030"
     id="namedview30"
     showgrid="false"
     inkscape:zoom="1.7898617"
     inkscape:cx="91.435061"
     inkscape:cy="242.7934"
     inkscape:window-x="0"
     inkscape:window-y="23"
     inkscape:window-maximized="0"
     inkscape:current-layer="g56"
     inkscape:document-rotation="0" /><g
     id="g36"
     inkscape:groupmode="layer"
     inkscape:label="january_characters365"
     transform="matrix(1.3333333,0,0,-1.3333333,0,480)"
     style="display:inline"><g
       id="g40"><g
         id="g42"
         clip-path="url(#clipPath46)"><g
           id="g48"
           transform="translate(185.6758,313.7354)"
           style="stroke:#000000;stroke-opacity:1;stroke-width:6.00000015;stroke-miterlimit:4;stroke-dasharray:none;fill:none"><path
             d="m 0,0 c -6.237,18.455 -23.694,31.74 -44.254,31.74 -25.793,0 -46.702,-20.909 -46.702,-46.702 0,-13.731 5.925,-26.078 15.358,-34.623 l -0.699,0.664 c 9.401,-8.543 15.302,-20.867 15.302,-34.57 0,-12.256 -4.722,-23.408 -12.444,-31.739"
             style="fill:none;stroke:#000000;stroke-width:6.00000015;stroke-linecap:butt;stroke-linejoin:miter;stroke-miterlimit:4;stroke-dasharray:none;stroke-opacity:1"
             id="path50" /></g><g
           id="g52"
           transform="translate(196.9355,309.2974)"><path
             d="m 0,0 c 0,-5.812 -4.711,-10.524 -10.523,-10.524 h -5.93 c -5.813,0 -10.524,4.712 -10.524,10.524 0,5.812 4.711,10.524 10.524,10.524 h 5.93 C -4.711,10.524 0,5.812 0,0"
             style="fill:#b8432f;fill-opacity:1;fill-rule:nonzero;stroke:none"
             id="path54" /></g><g
           id="g56"
           transform="translate(225.6133,288.4438)"><path
             d="m 0,0 c -3.481,-3.482 -9.127,-3.482 -12.609,0 l -3.553,3.553 c -3.482,3.481 -3.482,9.127 10e-4,12.609 3.481,3.481 9.127,3.481 12.609,0 l 3.551,-3.553 C 3.481,9.127 3.481,3.482 0,0"
             style="fill:#b8432f;fill-opacity:1;fill-rule:nonzero;stroke:none;stroke-opacity:1;stroke-width:2.00000005;stroke-miterlimit:4;stroke-dasharray:none"
             id="path58" /></g><g
           id="g60"
           transform="translate(141.2803,288.4438)"><path
             d="m 0,0 c 3.481,-3.482 9.127,-3.482 12.609,0 l 3.553,3.553 c 3.482,3.481 3.482,9.127 -10e-4,12.609 -3.481,3.481 -9.127,3.481 -12.609,0 L 0.001,12.609 C -3.481,9.127 -3.481,3.482 0,0"
             style="fill:#b8432f;fill-opacity:1;fill-rule:nonzero;stroke:none"
             id="path62" /></g><g
           id="g64"
           transform="translate(145.4199,265.5293)"><path
             d="M 0,0 C 0,21.002 17.025,38.027 38.027,38.027 59.029,38.027 76.055,21.002 76.055,0 76.055,-21.002 59.029,-38.027 38.027,-38.027 17.025,-38.027 0,-21.002 0,0"
             style="fill:#3d3d3e;fill-opacity:1;fill-rule:nonzero;stroke:none"
             id="path66" /></g><g
           id="g68"
           transform="translate(229.0781,106.5308)"><path
             d="M 0,0 H -29.496 V 2.458 H -61.854 V 0 h -29.39 c -3.162,-11.438 -4.86,-23.485 -4.86,-35.93 0,-17.612 3.389,-34.431 9.543,-49.846 h 38.672 v 68.734 h 0.014 c 0.164,1.095 1.102,1.937 2.242,1.937 1.143,0 2.078,-0.842 2.244,-1.937 h 0.034 V -85.776 H -4.684 C 1.471,-70.361 4.861,-53.542 4.861,-35.93 4.861,-23.485 3.164,-11.438 0,0"
             style="fill:#ff704b;fill-opacity:1;fill-rule:nonzero;stroke:none"
             id="path70" /></g><g
           id="g72"
           transform="translate(196.5,173.6558)"><path
             d="M 0,0 C 0,22.229 18.02,40.25 40.25,40.25 62.479,40.25 80.498,22.229 80.498,0 80.498,-22.229 62.479,-40.25 40.25,-40.25 18.02,-40.25 0,-22.229 0,0"
             style="fill:#da5f42;fill-opacity:1;fill-rule:nonzero;stroke:none"
             id="path74" /></g></g></g><g
       id="g78"
       clip-path="url(#clipPath82)"><path
         d="m 239.998,183.655 h 39 v 5.333 h -39 z"
         style="fill:#ff704b;fill-opacity:1;fill-rule:nonzero;stroke:#72e5d2;stroke-width:1;stroke-linecap:butt;stroke-linejoin:miter;stroke-miterlimit:10;stroke-dasharray:none;stroke-opacity:1"
         id="path84" /><path
         d="m 239.998,158.321 h 39 v 5.333 h -39 z"
         style="fill:#ff704b;fill-opacity:1;fill-rule:nonzero;stroke:#72e5d2;stroke-width:1;stroke-linecap:butt;stroke-linejoin:miter;stroke-miterlimit:10;stroke-dasharray:none;stroke-opacity:1"
         id="path86" /></g><g
       id="g90"
       clip-path="url(#clipPath94)"><g
         id="g96"
         transform="translate(170.3945,173.6558)"><path
           d="M 0,0 C 0,22.229 -18.021,40.25 -40.25,40.25 -62.479,40.25 -80.5,22.229 -80.5,0 c 0,-22.229 18.021,-40.25 40.25,-40.25 C -18.021,-40.25 0,-22.229 0,0"
           style="fill:#da5f42;fill-opacity:1;fill-rule:nonzero;stroke:none"
           id="path98" /></g></g><g
       id="g102"
       clip-path="url(#clipPath106)"><path
         d="m 126.895,183.655 h -39 v 5.333 h 39 z"
         style="fill:#ff704b;fill-opacity:1;fill-rule:nonzero;stroke:#72e5d2;stroke-width:1;stroke-linecap:butt;stroke-linejoin:miter;stroke-miterlimit:10;stroke-dasharray:none;stroke-opacity:1"
         id="path108" /><path
         d="m 126.895,158.321 h -39 v 5.333 h 39 z"
         style="fill:#ff704b;fill-opacity:1;fill-rule:nonzero;stroke:#72e5d2;stroke-width:1;stroke-linecap:butt;stroke-linejoin:miter;stroke-miterlimit:10;stroke-dasharray:none;stroke-opacity:1"
         id="path110" /></g><g
       id="g114"
       clip-path="url(#clipPath118)"><g
         id="g120"
         transform="translate(243.8223,173.6558)"><path
           d="m 0,0 c 0,15.117 -5.57,28.924 -14.75,39.516 v 0.067 2.75 c 0,2.209 -1.791,4 -4,4 h -2.928 c -10.478,8.762 -23.97,14.042 -38.697,14.042 -14.729,0 -28.221,-5.28 -38.699,-14.042 H -102 c -2.209,0 -4,-1.791 -4,-4 v -2.75 -0.067 C -115.182,28.924 -120.75,15.117 -120.75,0 c 0,-15.117 5.568,-28.924 14.75,-39.516 v -16.859 c 0,-2.209 1.791,-4 4,-4 h 83.25 c 2.209,0 4,1.791 4,4 v 16.859 C -5.57,-28.924 0,-15.117 0,0"
           style="fill:#ff704b;fill-opacity:1;fill-rule:nonzero;stroke:none"
           id="path122" /></g><g
         id="g124"
         transform="translate(183.4473,235.4043)"><path
           d="M 0,0 C -16.639,0 -30.125,13.487 -30.125,30.125 -30.125,46.763 -16.639,60.25 0,60.25 16.637,60.25 30.125,46.763 30.125,30.125 30.125,13.487 16.637,0 0,0 M 45.615,30.5 C 45.412,55.524 25.07,75.75 0,75.75 c -24.979,0 -45.256,-20.075 -45.609,-44.969 h -0.016 V -11.5 c 0,-2.209 1.791,-4 4,-4 h 83.25 c 2.209,0 4,1.791 4,4 v 42 z"
           style="fill:#ff704b;fill-opacity:1;fill-rule:nonzero;stroke:none"
           id="path126" /></g></g><g
       id="g130"
       clip-path="url(#clipPath134)"><g
         id="g136"
         transform="translate(215.6172,251.9438)"><path
           d="m 0,0 -2.477,-2.475 -45.753,45.755 2.474,2.475 z"
           style="fill:#60535b;fill-opacity:1;fill-rule:nonzero;stroke:none"
           id="path138" /></g><g
         id="g140"
         transform="translate(199.5078,235.835)"><path
           d="m 0,0 -2.475,-2.475 -45.755,45.755 2.474,2.475 z"
           style="fill:#60535b;fill-opacity:1;fill-rule:nonzero;stroke:none"
           id="path142" /></g><g
         id="g144"
         transform="translate(169.8613,233.3599)"><path
           d="M 0,0 -2.475,2.475 43.279,48.23 45.756,45.755 Z"
           style="fill:#60535b;fill-opacity:1;fill-rule:nonzero;stroke:none"
           id="path146" /></g><g
         id="g148"
         transform="translate(153.752,249.4687)"><path
           d="M 0,0 -2.475,2.475 43.281,48.23 45.756,45.755 Z"
           style="fill:#60535b;fill-opacity:1;fill-rule:nonzero;stroke:none"
           id="path150" /></g></g><g
       id="g154"
       clip-path="url(#clipPath158)"><g
         id="g160"
         transform="translate(137.8223,226.6543)"><path
           d="m 0,0 v -2.75 c 0,-2.209 1.791,-4 4,-4 h 83.25 c 2.209,0 4,1.791 4,4 V 0 Z"
           style="fill:#b8432f;fill-opacity:1;fill-rule:nonzero;stroke:none"
           id="path162" /></g><g
         id="g164"
         transform="translate(183.4473,235.4043)"><path
           d="M 0,0 C -16.639,0 -30.125,13.487 -30.125,30.125 -30.125,46.763 -16.639,60.25 0,60.25 16.637,60.25 30.125,46.763 30.125,30.125 30.125,13.487 16.637,0 0,0 m 0,61.756 c -17.471,0 -31.633,-14.161 -31.633,-31.631 0,-17.47 14.162,-31.631 31.633,-31.631 17.469,0 31.631,14.161 31.631,31.631 0,17.47 -14.162,31.631 -31.631,31.631"
           style="fill:#72e5d2;fill-opacity:1;fill-rule:nonzero;stroke:none"
           id="path166" /></g><g
         id="g168"
         transform="translate(181.8398,302.856)"><path
           d="m 0,0 c 0.934,0.934 2.447,0.935 3.381,0 0.935,-0.934 0.935,-2.448 0,-3.382 -0.934,-0.934 -2.447,-0.934 -3.383,0 C -0.936,-2.448 -0.934,-0.934 0,0"
           style="fill:#60535b;fill-opacity:1;fill-rule:nonzero;stroke:none"
           id="path170" /></g><g
         id="g172"
         transform="translate(185.2227,299.4736)"><path
           d="m 0,0 c 0.934,0.934 0.934,2.448 0,3.382 -0.936,0.934 -2.449,0.934 -3.383,0 z"
           style="fill:#493e46;fill-opacity:1;fill-rule:nonzero;stroke:none"
           id="path174" /></g><g
         id="g176"
         transform="translate(207.0117,292.3594)"><path
           d="m 0,0 c 0.934,0.934 2.447,0.935 3.381,0 0.935,-0.934 0.935,-2.447 0,-3.381 C 2.447,-4.316 0.936,-4.315 0,-3.381 -0.934,-2.447 -0.934,-0.934 0,0"
           style="fill:#60535b;fill-opacity:1;fill-rule:nonzero;stroke:none"
           id="path178" /></g><g
         id="g180"
         transform="translate(210.3945,288.9766)"><path
           d="m 0,0 c 0.934,0.934 0.934,2.449 0,3.383 -0.936,0.933 -2.449,0.933 -3.383,0 z"
           style="fill:#493e46;fill-opacity:1;fill-rule:nonzero;stroke:none"
           id="path182" /></g><g
         id="g184"
         transform="translate(217.3926,267.1367)"><path
           d="m 0,0 c 0.934,0.934 2.447,0.934 3.381,0 0.935,-0.934 0.935,-2.447 0,-3.382 C 2.447,-4.317 0.934,-4.316 -0.002,-3.383 -0.934,-2.447 -0.934,-0.934 0,0"
           style="fill:#60535b;fill-opacity:1;fill-rule:nonzero;stroke:none"
           id="path186" /></g><g
         id="g188"
         transform="translate(220.7754,263.7539)"><path
           d="m 0,0 c 0.934,0.934 0.934,2.447 0,3.383 -0.936,0.933 -2.449,0.933 -3.383,0 z"
           style="fill:#493e46;fill-opacity:1;fill-rule:nonzero;stroke:none"
           id="path190" /></g><g
         id="g192"
         transform="translate(206.8945,241.9629)"><path
           d="m 0,0 c 0.934,0.934 2.449,0.934 3.381,0 0.935,-0.934 0.935,-2.447 0,-3.381 C 2.449,-4.317 0.934,-4.315 0,-3.382 -0.934,-2.447 -0.934,-0.934 0,0"
           style="fill:#60535b;fill-opacity:1;fill-rule:nonzero;stroke:none"
           id="path194" /></g><g
         id="g196"
         transform="translate(210.2773,238.5806)"><path
           d="m 0,0 c 0.934,0.934 0.934,2.447 0,3.382 -0.936,0.934 -2.449,0.934 -3.383,0 z"
           style="fill:#493e46;fill-opacity:1;fill-rule:nonzero;stroke:none"
           id="path198" /></g><g
         id="g200"
         transform="translate(181.6719,231.5859)"><path
           d="m 0,0 c 0.934,0.934 2.449,0.934 3.381,0 0.935,-0.934 0.935,-2.447 0,-3.382 C 2.449,-4.318 0.934,-4.315 0,-3.383 -0.934,-2.447 -0.934,-0.934 0,0"
           style="fill:#60535b;fill-opacity:1;fill-rule:nonzero;stroke:none"
           id="path202" /></g><g
         id="g204"
         transform="translate(185.0547,228.2031)"><path
           d="m 0,0 c 0.934,0.934 0.934,2.447 0,3.383 -0.936,0.933 -2.449,0.933 -3.383,0 z"
           style="fill:#493e46;fill-opacity:1;fill-rule:nonzero;stroke:none"
           id="path206" /></g><g
         id="g208"
         transform="translate(156.498,242.082)"><path
           d="m 0,0 c 0.934,0.934 2.449,0.933 3.381,0 0.935,-0.934 0.935,-2.447 0,-3.383 C 2.449,-4.318 0.934,-4.316 0,-3.383 -0.934,-2.447 -0.934,-0.934 0,0"
           style="fill:#60535b;fill-opacity:1;fill-rule:nonzero;stroke:none"
           id="path210" /></g><g
         id="g212"
         transform="translate(159.8828,238.6992)"><path
           d="m 0,0 c 0.934,0.934 0.934,2.447 -0.002,3.383 -0.935,0.933 -2.449,0.933 -3.383,0 z"
           style="fill:#493e46;fill-opacity:1;fill-rule:nonzero;stroke:none"
           id="path214" /></g><g
         id="g216"
         transform="translate(146.1191,267.3047)"><path
           d="M 0,0 C 0.934,0.934 2.449,0.933 3.381,0 4.316,-0.934 4.316,-2.447 3.383,-3.382 2.449,-4.317 0.936,-4.315 0,-3.383 -0.934,-2.447 -0.934,-0.934 0,0"
           style="fill:#60535b;fill-opacity:1;fill-rule:nonzero;stroke:none"
           id="path218" /></g><g
         id="g220"
         transform="translate(149.502,263.9219)"><path
           d="m 0,0 c 0.934,0.934 0.934,2.447 0,3.383 -0.936,0.933 -2.449,0.933 -3.383,0 z"
           style="fill:#493e46;fill-opacity:1;fill-rule:nonzero;stroke:none"
           id="path222" /></g><g
         id="g224"
         transform="translate(156.6172,292.479)"><path
           d="m 0,0 c 0.934,0.934 2.447,0.933 3.381,0 0.935,-0.935 0.935,-2.448 0,-3.382 C 2.447,-4.317 0.934,-4.315 0,-3.384 -0.934,-2.447 -0.934,-0.934 0,0"
           style="fill:#60535b;fill-opacity:1;fill-rule:nonzero;stroke:none"
           id="path226" /></g><g
         id="g228"
         transform="translate(160,289.0957)"><path
           d="M 0,0 C 0.934,0.934 0.934,2.447 0,3.382 -0.936,4.317 -2.449,4.317 -3.383,3.383 Z"
           style="fill:#493e46;fill-opacity:1;fill-rule:nonzero;stroke:none"
           id="path230" /></g><path
         d="m 167.588,116.656 h -5.762 v 59.832 h 5.762 z"
         style="fill:#ff704b;fill-opacity:1;fill-rule:nonzero;stroke:#72e5d2;stroke-width:1;stroke-linecap:butt;stroke-linejoin:miter;stroke-miterlimit:10;stroke-dasharray:none;stroke-opacity:1"
         id="path232" /><path
         d="m 205.285,116.656 h -5.762 v 59.832 h 5.762 z"
         style="fill:#ff704b;fill-opacity:1;fill-rule:nonzero;stroke:#72e5d2;stroke-width:1;stroke-linecap:butt;stroke-linejoin:miter;stroke-miterlimit:10;stroke-dasharray:none;stroke-opacity:1"
         id="path234" /><g
         id="g236"
         transform="translate(213.1328,181.9883)"><path
           d="m 0,0 c 0,-5.523 -4.477,-10 -10,-10 h -39.457 c -5.523,0 -10,4.477 -10,10 V 35.333 H 0 Z"
           style="fill:#da5f42;fill-opacity:1;fill-rule:nonzero;stroke:none"
           id="path238" /></g><g
         id="g240"
         transform="translate(158.9629,208.3062)"><path
           d="m 0,0 c 0.934,0.934 2.447,0.935 3.381,0 0.935,-0.934 0.935,-2.448 0,-3.382 C 2.447,-4.316 0.936,-4.316 0,-3.382 -0.934,-2.448 -0.934,-0.934 0,0"
           style="fill:#60535b;fill-opacity:1;fill-rule:nonzero;stroke:none"
           id="path242" /></g><g
         id="g244"
         transform="translate(162.3457,204.9238)"><path
           d="m 0,0 c 0.934,0.934 0.934,2.448 0,3.382 -0.936,0.934 -2.449,0.934 -3.383,0 z"
           style="fill:#493e46;fill-opacity:1;fill-rule:nonzero;stroke:none"
           id="path246" /></g><g
         id="g248"
         transform="translate(204.4629,208.3062)"><path
           d="m 0,0 c 0.934,0.934 2.447,0.935 3.381,0 0.935,-0.934 0.935,-2.448 0,-3.382 C 2.447,-4.316 0.936,-4.316 0,-3.382 -0.934,-2.448 -0.934,-0.934 0,0"
           style="fill:#60535b;fill-opacity:1;fill-rule:nonzero;stroke:none"
           id="path250" /></g><g
         id="g252"
         transform="translate(207.8457,204.9238)"><path
           d="m 0,0 c 0.934,0.934 0.934,2.448 0,3.382 -0.936,0.934 -2.449,0.934 -3.383,0 z"
           style="fill:#493e46;fill-opacity:1;fill-rule:nonzero;stroke:none"
           id="path254" /></g><g
         id="g256"
         transform="translate(158.9629,183.0049)"><path
           d="m 0,0 c 0.934,0.934 2.447,0.935 3.381,0 0.935,-0.934 0.935,-2.448 0,-3.382 C 2.447,-4.316 0.936,-4.316 0,-3.382 -0.934,-2.448 -0.934,-0.934 0,0"
           style="fill:#60535b;fill-opacity:1;fill-rule:nonzero;stroke:none"
           id="path258" /></g><g
         id="g260"
         transform="translate(162.3457,179.6226)"><path
           d="m 0,0 c 0.934,0.934 0.934,2.448 0,3.382 -0.936,0.934 -2.449,0.934 -3.383,0 z"
           style="fill:#493e46;fill-opacity:1;fill-rule:nonzero;stroke:none"
           id="path262" /></g><g
         id="g264"
         transform="translate(204.4629,183.0049)"><path
           d="m 0,0 c 0.934,0.934 2.447,0.935 3.381,0 0.935,-0.934 0.935,-2.448 0,-3.382 C 2.447,-4.316 0.936,-4.316 0,-3.382 -0.934,-2.448 -0.934,-0.934 0,0"
           style="fill:#60535b;fill-opacity:1;fill-rule:nonzero;stroke:none"
           id="path266" /></g><g
         id="g268"
         transform="translate(207.8457,179.6226)"><path
           d="m 0,0 c 0.934,0.934 0.934,2.448 0,3.382 -0.936,0.934 -2.449,0.934 -3.383,0 z"
           style="fill:#493e46;fill-opacity:1;fill-rule:nonzero;stroke:none"
           id="path270" /></g><path
         d="m 229.072,106.531 h -91.25 v 13.52 h 91.25 z"
         style="fill:#60535b;fill-opacity:1;fill-rule:nonzero;stroke:none"
         id="path272" /><g
         id="g274"
         transform="translate(167.957,109.7808)"><path
           d="m 0,0 c 0,-1.795 -1.455,-3.25 -3.25,-3.25 -1.795,0 -3.25,1.455 -3.25,3.25 v 7 c 0,1.795 1.455,3.25 3.25,3.25 C -1.455,10.25 0,8.795 0,7 Z"
           style="fill:#493e46;fill-opacity:1;fill-rule:nonzero;stroke:none"
           id="path276" /></g><g
         id="g278"
         transform="translate(152.5352,109.7808)"><path
           d="m 0,0 c 0,-1.795 -1.455,-3.25 -3.25,-3.25 -1.795,0 -3.25,1.455 -3.25,3.25 v 7 c 0,1.795 1.455,3.25 3.25,3.25 C -1.455,10.25 0,8.795 0,7 Z"
           style="fill:#493e46;fill-opacity:1;fill-rule:nonzero;stroke:none"
           id="path280" /></g><g
         id="g282"
         transform="translate(220.8574,109.7808)"><path
           d="m 0,0 c 0,-1.795 -1.455,-3.25 -3.25,-3.25 -1.795,0 -3.25,1.455 -3.25,3.25 v 7 c 0,1.795 1.455,3.25 3.25,3.25 C -1.455,10.25 0,8.795 0,7 Z"
           style="fill:#493e46;fill-opacity:1;fill-rule:nonzero;stroke:none"
           id="path284" /></g><g
         id="g286"
         transform="translate(205.6543,109.7808)"><path
           d="m 0,0 c 0,-1.795 -1.455,-3.25 -3.25,-3.25 -1.795,0 -3.25,1.455 -3.25,3.25 v 7 c 0,1.795 1.455,3.25 3.25,3.25 C -1.455,10.25 0,8.795 0,7 Z"
           style="fill:#493e46;fill-opacity:1;fill-rule:nonzero;stroke:none"
           id="path288" /></g><g
         id="g290"
         transform="translate(176.7187,113.3218)"><path
           d="m 0,0 c 0,3.716 3.012,6.729 6.729,6.729 3.714,0 6.728,-3.013 6.728,-6.729 0,-3.716 -3.014,-6.729 -6.728,-6.729 C 3.012,-6.729 0,-3.716 0,0"
           style="fill:#493e46;fill-opacity:1;fill-rule:nonzero;stroke:none"
           id="path292" /></g></g><g
       id="g296"
       clip-path="url(#clipPath300)"><path
         d="m 183.529,68.655 h 61.66 v 5.333 h -61.66 z"
         style="fill:#ff704b;fill-opacity:1;fill-rule:nonzero;stroke:#72e5d2;stroke-width:1;stroke-linecap:butt;stroke-linejoin:miter;stroke-miterlimit:10;stroke-dasharray:none;stroke-opacity:1"
         id="path302" /><path
         d="m 183.529,43.321 h 61.66 v 5.333 h -61.66 z"
         style="fill:#ff704b;fill-opacity:1;fill-rule:nonzero;stroke:#72e5d2;stroke-width:1;stroke-linecap:butt;stroke-linejoin:miter;stroke-miterlimit:10;stroke-dasharray:none;stroke-opacity:1"
         id="path304" /><path
         d="m 121.531,68.655 h 61.66 v 5.333 h -61.66 z"
         style="fill:#ff704b;fill-opacity:1;fill-rule:nonzero;stroke:#72e5d2;stroke-width:1;stroke-linecap:butt;stroke-linejoin:miter;stroke-miterlimit:10;stroke-dasharray:none;stroke-opacity:1"
         id="path306" /><path
         d="m 121.531,43.321 h 61.66 v 5.333 h -61.66 z"
         style="fill:#ff704b;fill-opacity:1;fill-rule:nonzero;stroke:#72e5d2;stroke-width:1;stroke-linecap:butt;stroke-linejoin:miter;stroke-miterlimit:10;stroke-dasharray:none;stroke-opacity:1"
         id="path308" /></g><g
       id="g312"
       clip-path="url(#clipPath316)"><g
         id="g318"><g
           id="g320" /><g
           id="g332"><g
             clip-path="url(#clipPath324)"
             opacity="0.149994"
             id="g330"><g
               transform="translate(229.0723,224.0859)"
               id="g328"><path
                 d="m 0,0 v 41.818 h -0.01 c -0.203,25.025 -20.545,45.25 -45.615,45.25 -11.537,0 -22.064,-4.288 -30.096,-11.349 z"
                 style="fill:#ffffff;fill-opacity:1;fill-rule:nonzero;stroke:none"
                 id="path326" /></g></g></g></g><g
         id="g334"
         transform="translate(153.6758,213.1602)"><path
           d="M 0,0 H 59.445"
           style="fill:none;stroke:#b8432f;stroke-width:1;stroke-linecap:butt;stroke-linejoin:miter;stroke-miterlimit:10;stroke-dasharray:none;stroke-opacity:1"
           id="path336" /></g><g
         id="g338"
         transform="translate(137.8223,213.1602)"><path
           d="m 0,0 v 2.822 c 0,2.209 1.791,4 4,4 h 83.25 c 2.209,0 4,-1.791 4,-4 V 0 Z"
           style="fill:#da5f42;fill-opacity:1;fill-rule:nonzero;stroke:none"
           id="path340" /></g></g></g></svg>
